<?xml version="1.0" ?><!DOCTYPE svg  PUBLIC '-//W3C//DTD SVG 1.1//EN'  'http://www.w3.org/Graphics/SVG/1.1/DTD/svg11.dtd'><svg height="512px" id="Layer_1" style="enable-background:new 0 0 512 512;" version="1.1" viewBox="0 0 512 512" width="512px" xml:space="preserve" xmlns="http://www.w3.org/2000/svg" xmlns:xlink="http://www.w3.org/1999/xlink"><style type="text/css">
<![CDATA[
	.st0{fill:#ABC45B;}
	.st1{fill:#AC4736;}
	.st2{fill:#499444;}
	.st3{clip-path:url(#SVGID_2_);fill:url(#SVGID_3_);}
	.st4{fill:#AE8635;}
	.st5{fill:#E0D8BD;}
	.st6{fill:#E11F26;}
	.st7{fill:#E15263;}
	.st8{fill:#E1544A;}
	.st9{fill:#E17827;}
	.st10{fill:#E1B623;}
	.st11{fill:#E28126;}
	.st12{fill:#E2A15A;}
	.st13{fill:#E2BD6A;}
	.st14{fill:#E2E2E2;}
	.st15{fill:#E35225;}
	.st16{fill:#E3AA24;}
	.st17{fill:#E3C19B;}
	.st18{fill:#E3DFC6;}
	.st19{fill:#1598C5;}
	.st20{fill:#E4BB92;}
	.st21{fill:#E52828;}
	.st22{fill:#E54141;}
	.st23{fill:#E56A5A;}
	.st24{fill:#4ABC96;}
	.st25{fill:#E5AA17;}
	.st26{fill:#E5C67F;}
	.st27{fill:#E5E5E5;}
	.st28{fill:#E7C183;}
	.st29{fill:#E7CF65;}
	.st30{fill:#4D8740;}
	.st31{fill:#E8AD7A;}
	.st32{fill:#E8B04C;}
	.st33{fill:#E8CF64;}
	.st34{fill:#E8D7C9;}
	.st35{fill:#E98F23;}
	.st36{fill:#E99323;}
	.st37{fill:#E9E5D7;}
	.st38{fill:#808080;}
	.st39{fill:#81C3D2;}
	.st40{fill:#B15A27;}
	.st41{fill:#827564;}
	.st42{fill:#B1AE36;}
	.st43{fill:#834B1F;}
	.st44{fill:#B2A98E;}
	.st45{fill:#846A35;}
	.st46{fill:#B4D56E;}
	.st47{fill:#B4D85B;}
	.st48{fill:#1A1A1B;}
	.st49{fill:#864F4F;}
	.st50{fill:#EA4949;}
	.st51{fill:#EA7724;}
	.st52{fill:#EA8023;}
	.st53{fill:#EA9F3C;}
	.st54{fill:#EAD063;}
	.st55{fill:#EAD760;}
	.st56{fill:#EAE1BB;}
	.st57{fill:#EAE8EA;}
	.st58{fill:#EAEAEB;}
	.st59{fill:#B72042;}
	.st60{fill:#B73535;}
	.st61{fill:#B79751;}
	.st62{fill:#EB9C22;}
	.st63{fill:#B7E3F3;}
	.st64{fill:#EC1C24;}
	.st65{fill:#EC1C2B;}
	.st66{fill:#EC2224;}
	.st67{fill:#B8C973;}
	.st68{fill:#ECB660;}
	.st69{fill:#ECDE7A;}
	.st70{fill:#ECE5CB;}
	.st71{fill:#EDC51B;}
	.st72{fill:#EDDEA2;}
	.st73{fill:#EE3A36;}
	.st74{fill:#EEE26F;}
	.st75{fill:#EF5454;}
	.st76{fill:#EFCE89;}
	.st77{fill:#EFEAD1;}
	.st78{fill:#EFEFEF;}
	.st79{fill:#543D18;}
	.st80{fill:#55C9F3;}
	.st81{fill:#568C4C;}
	.st82{fill:#8A5D3B;}
	.st83{fill:#8B8B8C;}
	.st84{fill:#8BC53F;}
	.st85{fill:#BB4127;}
	.st86{fill:#58841F;}
	.st87{fill:#BBB194;}
	.st88{fill:#BC3D40;}
	.st89{fill:#8E5932;}
	.st90{fill:#BE1E2D;}
	.st91{fill:#8F8547;}
	.st92{fill:#F05A28;}
	.st93{fill:#BFC0C1;}
	.st94{fill:#F0A91E;}
	.st95{fill:#F0B122;}
	.st96{fill:#F0B234;}
	.st97{fill:#F17921;}
	.st98{fill:#F19438;}
	.st99{fill:#F1A65B;}
	.st100{fill:#231F20;}
	.st101{fill:#F1B851;}
	.st102{fill:#F1C380;}
	.st103{fill:#F1CE6A;}
	.st104{fill:#F1E2A3;}
	.st105{fill:#F1F1F2;}
	.st106{fill:#F23636;}
	.st107{fill:#F2B225;}
	.st108{fill:#F2E2E2;}
	.st109{fill:#F2E78A;}
	.st110{fill:#F2ECC6;}
	.st111{fill:#F3B022;}
	.st112{fill:#F3B445;}
	.st113{fill:#F3CD9C;}
	.st114{fill:#F3F3F3;}
	.st115{fill:#258999;}
	.st116{fill:#25B7D3;}
	.st117{fill:#F48D3E;}
	.st118{fill:#F4C778;}
	.st119{fill:#F4D0AE;}
	.st120{fill:#F4E3D3;}
	.st121{fill:#5A4A42;}
	.st122{fill:#26A9E0;}
	.st123{clip-path:url(#SVGID_8_);fill:#3B2314;}
	.st124{fill:#F59121;}
	.st125{fill:#F5E6DB;}
	.st126{fill:#5B4F3F;}
	.st127{fill:#F6921E;}
	.st128{fill:#F69221;}
	.st129{fill:#F69821;}
	.st130{fill:#F6C413;}
	.st131{fill:#F6F6F5;}
	.st132{fill:#5C2A2A;}
	.st133{fill:#F7B56B;}
	.st134{fill:#F7D857;}
	.st135{fill:#F7EBE3;}
	.st136{fill:#F8CDCF;}
	.st137{fill:#F8E07B;}
	.st138{fill:#F8E37F;}
	.st139{fill:#F8F5EA;}
	.st140{fill:#F8F9E5;}
	.st141{fill:#F9C348;}
	.st142{fill:#F9E17A;}
	.st143{fill:#F9EBB4;}
	.st144{fill:#F9EC31;}
	.st145{fill:#C08352;}
	.st146{fill-rule:evenodd;clip-rule:evenodd;fill:#EF6358;}
	.st147{fill:#91BC3C;}
	.st148{clip-path:url(#SVGID_5_);fill:url(#SVGID_6_);}
	.st149{fill:#C11B1B;}
	.st150{fill:#C1272D;}
	.st151{fill:#C13B3B;}
	.st152{fill:#C13D1F;}
	.st153{fill:#C16028;}
	.st154{fill:#929497;}
	.st155{fill:#C1B49A;}
	.st156{fill:#C25428;}
	.st157{fill:#C36D29;}
	.st158{fill:#C3996B;}
	.st159{fill:#952F25;}
	.st160{fill:#C5AE2E;}
	.st161{fill:#C63447;}
	.st162{fill:#C6C5C5;}
	.st163{fill:#FAAF3C;}
	.st164{fill:#FAAF40;}
	.st165{fill:#FABC3D;}
	.st166{fill:#C7EFDC;}
	.st167{fill:#FBB569;}
	.st168{fill:#FBC651;}
	.st169{fill:#FCB72B;}
	.st170{fill:#FCCF99;}
	.st171{fill:#FCDEA9;}
	.st172{fill:#FDBF23;}
	.st173{fill:#FDD600;}
	.st174{fill:#FDD842;}
	.st175{fill:#FDDD65;}
	.st176{fill:#FDDEBF;}
	.st177{fill:#FDE1CA;}
	.st178{fill:#FDF6B5;}
	.st179{fill-rule:evenodd;clip-rule:evenodd;fill:#BE1E2D;}
	.st180{fill:#60574C;}
	.st181{fill:none;stroke:#FFFFFF;stroke-width:13.7822;stroke-miterlimit:10;}
	.st182{fill:#FFD683;}
	.st183{fill:#FFD684;}
	.st184{fill:#FFDAAA;}
	.st185{fill:#FFF100;}
	.st186{fill:#FFFDFF;}
	.st187{fill:#FFFFFF;}
	.st188{fill-rule:evenodd;clip-rule:evenodd;fill:#231F20;}
	.st189{fill:#9A8479;}
	.st190{fill:#9B1C29;}
	.st191{fill:#CBA159;}
	.st192{fill:#CC3828;}
	.st193{fill:#697C2C;}
	.st194{fill:#9D5024;}
	.st195{fill:#CDCCCC;}
	.st196{fill:#CDE580;}
	.st197{fill:#CE4927;}
	.st198{fill:#32BEA6;}
	.st199{fill:#334D5C;}
	.st200{fill:#37B34A;}
	.st201{fill-rule:evenodd;clip-rule:evenodd;fill:#FAAF40;}
	.st202{fill:#009345;}
	.st203{fill:#00ADEE;}
	.st204{fill-rule:evenodd;clip-rule:evenodd;fill:#603813;}
	.st205{fill:#D0425B;}
	.st206{fill:#D0D2D3;}
	.st207{fill-rule:evenodd;clip-rule:evenodd;fill:#FFFFFF;}
	.st208{fill:#D17E2E;}
	.st209{fill:#D1CAA8;}
	.st210{fill:#D22946;}
	.st211{fill:#D31C1C;}
	.st212{fill:#D3D1D0;}
	.st213{fill:#D4BE29;}
	.st214{fill:#3B2314;}
	.st215{fill:#3B3A3C;}
	.st216{fill:#D61E1E;}
	.st217{fill:#D62427;}
	.st218{fill:#D6E88B;}
	.st219{fill:#D84456;}
	.st220{fill:#D8542F;}
	.st221{fill:#D8553F;}
	.st222{fill:#D8B45D;}
	.st223{fill:#D8D8D7;}
	.st224{fill:#702414;}
	.st225{fill:#3FB6D6;}
	.st226{fill:#716558;}
	.st227{fill:#718C30;}
	.st228{fill:#726756;}
	.st229{fill:#A31E22;}
	.st230{fill:#754C28;}
	.st231{fill:#A4A3A3;}
	.st232{fill:#A58749;}
	.st233{fill:#76692A;}
	.st234{fill:#0B301B;}
	.st235{fill:#A67D53;}
	.st236{fill:#DA1F26;}
	.st237{fill-rule:evenodd;clip-rule:evenodd;fill:#6B873A;}
	.st238{fill:#DB4F26;}
	.st239{fill:#DBB30B;}
	.st240{fill:#DBCC23;}
	.st241{fill:#A87C4F;}
	.st242{fill:#796027;}
	.st243{fill-rule:evenodd;clip-rule:evenodd;fill:#006838;}
	.st244{fill:#404041;}
	.st245{fill:#414042;}
]]>
</style><g><g><g><g><g><g><path class="st199" d="M7.921,256.004c0-137.021,111.07-248.083,248.083-248.083c137.005,0,248.075,111.062,248.075,248.083        c0,137.005-111.07,248.075-248.075,248.075C118.991,504.079,7.921,393.009,7.921,256.004z"/></g></g></g></g></g><g><g><g><path class="st103" d="M422.318,347.396c-11.246,34.55-71.938,54.641-160.684,54.641c-88.746,0-152.65-19.279-160.684-55.439      c-2.073-9.338,0-30.529,0-30.529c28.689-12.934,104.376-8.837,160.684-8.837c49.315,0,133.761-6.759,163.238,3.554      C424.873,310.785,425.922,336.342,422.318,347.396z"/></g></g><g><g><path class="st96" d="M261.635,402.037c-88.746,0-152.65-19.279-160.684-55.439c-2.073-9.338,0-30.529,0-30.529      c28.689-12.934,104.376-8.837,160.684-8.837V402.037z"/></g></g><g><g><path class="st111" d="M422.318,316.068c0,26.184-71.938,47.402-160.684,47.402c-88.746,0-160.684-21.219-160.684-47.402      c0-26.185,71.938-47.403,160.684-47.403C350.38,268.665,422.318,289.884,422.318,316.068z"/></g></g><g><g><ellipse class="st111" cx="268.061" cy="310.785" rx="156.812" ry="46.259"/></g></g><g><g><g><path class="st45" d="M419.717,310.169c0,24.708-67.898,44.733-151.656,44.733c-83.757,0-151.655-20.025-151.655-44.733       c0-9.035,0-36.396,0-36.396c27.083-12.211,98.516-8.343,151.655-8.343c46.538,0,123.838-2.533,151.656,7.202       C419.717,272.632,419.717,299.184,419.717,310.169z"/></g></g><g><g><path class="st242" d="M268.061,354.902c-83.757,0-151.655-20.025-151.655-44.733c0-9.035,0-36.396,0-36.396       c27.083-12.211,151.655-9.25,151.655-8.343C268.061,266.332,268.061,354.902,268.061,354.902z"/></g></g><g><g><path class="st79" d="M419.717,273.772c0,24.703-67.898,44.732-151.656,44.732c-83.757,0-151.655-20.029-151.655-44.732       c0-24.715,67.898-44.74,151.655-44.74C351.818,229.032,419.717,249.058,419.717,273.772z"/></g></g></g><g><g><g><path class="st192" d="M421.393,283.141c0,21.215-41.787,38.42-93.344,38.42c-51.55,0-93.336-17.205-93.336-38.42       c0-7.766,0-14.873,0-14.873c16.662-10.485,60.63-7.165,93.336-7.165c28.651,0,76.222-2.173,93.344,6.189       C421.393,267.292,421.393,273.703,421.393,283.141z"/></g></g><g><g><path class="st8" d="M421.393,268.268c0,21.227-41.787,38.429-93.344,38.429c-51.55,0-93.336-17.202-93.336-38.429       c0-21.223,41.786-38.429,93.336-38.429C379.605,229.839,421.393,247.045,421.393,268.268z"/></g></g></g><g><g><g><path class="st192" d="M283.592,273.485c0,21.223-38.704,38.429-86.436,38.429c-47.739,0-86.443-17.206-86.443-38.429       c0-7.758,0-14.333,0-14.333c15.432-10.481,56.147-7.165,86.443-7.165c26.524,0,70.576-2.169,86.436,6.189       C283.592,258.177,283.592,264.056,283.592,273.485z"/></g></g><g><g><path class="st8" d="M283.592,259.152c0,21.229-38.704,38.428-86.436,38.428c-47.739,0-86.443-17.198-86.443-38.428       c0-21.223,38.704-38.425,86.443-38.425C244.888,220.728,283.592,237.93,283.592,259.152z"/></g></g></g><g><g><g><path class="st45" d="M405.38,256.8c0,23.525-64.639,42.594-144.373,42.594c-79.741,0-144.388-19.068-144.388-42.594       c0-8.592,0-34.649,0-34.649c25.782-11.621,93.795-7.941,144.388-7.941c44.305,0,117.887-2.41,144.373,6.858       C405.38,221.067,405.38,246.349,405.38,256.8z"/></g></g><g><g><path class="st242" d="M261.007,299.394c-79.741,0-144.388-19.068-144.388-42.594c0-8.592,0-34.649,0-34.649       c25.782-11.621,93.795-7.941,144.388-7.941V299.394z"/></g></g><g><g><path class="st174" d="M406.313,234.536c-53.087,29.31-145.758,58.764-145.758,58.764s-93.727-24.635-145.75-58.764       c-19.86-13.028,65.252-54.241,145.75-54.241C341.062,180.295,427.107,223.057,406.313,234.536z"/></g></g><g><g><path class="st173" d="M260.556,293.3c0,0-93.727-24.635-145.75-58.764c-19.86-13.028,65.252-54.241,145.75-54.241       C285.733,180.295,260.556,293.3,260.556,293.3z"/></g></g><g><g><g><path class="st103" d="M105.832,203.376c0-48.485,69.283-92.181,154.739-92.181s154.731,43.695,154.731,92.181        c0,48.489-69.275,42.254-154.731,42.254S105.832,251.865,105.832,203.376z"/></g></g><g><g><path class="st94" d="M105.832,203.376c0-48.485,69.283-92.181,154.739-92.181c53.76,0,35.659,134.435,0,134.435        C175.115,245.63,105.832,251.865,105.832,203.376z"/></g></g><g><g><g><path class="st187" d="M307.752,137.536c0,3.63-2.578,6.583-5.761,6.583s-5.761-2.953-5.761-6.583         c0-3.638,2.578-6.587,5.761-6.587S307.752,133.898,307.752,137.536z"/></g></g><g><g><path class="st187" d="M255.896,167.166c0,3.634-2.578,6.58-5.761,6.58s-5.761-2.946-5.761-6.58         c0-3.642,2.578-6.587,5.761-6.587S255.896,163.524,255.896,167.166z"/></g></g><g><g><ellipse class="st187" cx="192.52" cy="200.086" rx="5.761" ry="6.584"/></g></g><g><g><path class="st187" d="M283.056,208.314c0,3.638-2.57,6.583-5.761,6.583c-3.183,0-5.761-2.945-5.761-6.583         c0-3.634,2.578-6.579,5.761-6.579C280.485,201.735,283.056,204.681,283.056,208.314z"/></g></g><g><g><path class="st187" d="M339.027,180.333c0,3.634-2.578,6.587-5.761,6.587s-5.762-2.953-5.762-6.587s2.579-6.587,5.762-6.587         S339.027,176.699,339.027,180.333z"/></g></g><g><g><path class="st187" d="M372.773,218.195c0,3.634-2.578,6.579-5.761,6.579s-5.761-2.945-5.761-6.579         c0-3.642,2.578-6.587,5.761-6.587S372.773,214.554,372.773,218.195z"/></g></g><g><g><ellipse class="st187" cx="381.005" cy="157.285" rx="5.761" ry="6.584"/></g></g><g><g><path class="st187" d="M226.267,130.949c0,3.63-2.578,6.587-5.761,6.587s-5.761-2.957-5.761-6.587         c0-3.635,2.578-6.588,5.761-6.588S226.267,127.314,226.267,130.949z"/></g></g><g><g><ellipse class="st187" cx="125.854" cy="193.503" rx="5.761" ry="6.583"/></g></g><g><g><path class="st187" d="M175.237,162.228c0,3.631-2.578,6.584-5.761,6.584s-5.761-2.953-5.761-6.584         c0-3.638,2.578-6.591,5.761-6.591S175.237,158.59,175.237,162.228z"/></g></g></g></g></g></g></g></svg>