<?xml version="1.0" ?><!DOCTYPE svg  PUBLIC '-//W3C//DTD SVG 1.1//EN'  'http://www.w3.org/Graphics/SVG/1.1/DTD/svg11.dtd'><svg enable-background="new 0 0 65 65" id="Layer_1" version="1.1" viewBox="0 0 65 65" xml:space="preserve" xmlns="http://www.w3.org/2000/svg" xmlns:xlink="http://www.w3.org/1999/xlink"><g><path d="M61.3,41.9c5.1-16.9-4.1-34.8-20.5-40S7,6.2,1.9,23.1c-5.1,16.9,4.1,34.8,20.5,40   c8.2,2.6,16.6,1.5,23.7-2.3L31.6,32.5L61.3,41.9z" fill="#E39A61"/><path d="M57,40.6c4.3-14.5-3.5-29.8-17.6-34.3C25.4,1.9,10.5,10,6.2,24.4C1.8,38.9,9.7,54.2,23.7,58.7   c7,2.2,14.3,1.3,20.3-1.9L31.6,32.5L57,40.6z" fill="#FBD984"/><path d="M64.5,44.9l-29.7-9.4l14.5,28.3C56.4,59.9,62,53.3,64.5,44.9z" fill="#E39A61"/><path d="M34.8,35.4l12.4,24.2c6-3.3,10.8-8.9,13-16.1L34.8,35.4z" fill="#FBD984"/><g><path d="M43.4,45.4c1.4-1.3,1.7-3.4,0.5-4.8c-1.1-1.3-3.2-1.4-4.7-0.1L43.4,45.4z" fill="#F1786B"/><path d="M42.6,44.5c-0.1-0.3,0.1-0.7,0.1-0.7l0.1-0.6l0.5-1l-1.6-1.1l-1.7,0.4L42.6,44.5z" fill="#FF9A92"/><path d="M43.2,43.8c0,0-0.5,0.4-0.8-0.1c-0.3-0.4,0.4-0.7,0.3-1c-0.1-0.3-1-1-1.7-0.9c-0.7,0.1-1.3-0.7-0.8-1    c0.5-0.3,2.4-0.8,3.3,0.4S43.8,43.5,43.2,43.8z" fill="#DD5E54"/><path d="M42.6,41.8c-0.1-0.1,0-0.3,0.1-0.4c0.1-0.1,0.3-0.1,0.4,0s0,0.3-0.1,0.4C42.8,41.9,42.7,41.9,42.6,41.8z" fill="#F1786B"/><path d="M42.9,42.3c0-0.1,0.1-0.3,0.3-0.3c0.2-0.1,0.3,0,0.4,0.1c0,0.1-0.1,0.3-0.3,0.3    C43.1,42.5,42.9,42.4,42.9,42.3z" fill="#F1786B"/><path d="M42.9,42.8c0-0.1,0.2-0.2,0.4-0.1c0.2,0.1,0.3,0.2,0.2,0.3c0,0.1-0.2,0.2-0.4,0.1    C43,43.1,42.9,42.9,42.9,42.8z" fill="#F1786B"/><path d="M42.1,41.6c-0.1,0-0.2-0.2-0.1-0.4c0-0.2,0.2-0.3,0.3-0.3c0.1,0,0.2,0.2,0.1,0.4    C42.4,41.5,42.2,41.6,42.1,41.6z" fill="#F1786B"/><ellipse cx="41.5" cy="41.2" fill="#F1786B" rx="0.3" ry="0.2" transform="matrix(3.436576e-002 0.9994 -0.9994 3.436576e-002 81.3199 -1.7089)"/><path d="M41,41.6c-0.1,0.1-0.3,0-0.3-0.2c-0.1-0.2-0.1-0.4,0.1-0.4c0.1-0.1,0.3,0,0.3,0.2    C41.1,41.4,41.1,41.5,41,41.6z" fill="#F1786B"/></g><g><path d="M44.2,35.3c1.4-1.3,1.7-3.4,0.5-4.8c-1.1-1.3-3.2-1.4-4.7-0.1L44.2,35.3z" fill="#F1786B"/><path d="M43.4,34.4c-0.1-0.3,0.1-0.7,0.1-0.7l0.1-0.6l0.5-1l-1.6-1.1l-1.7,0.4L43.4,34.4z" fill="#FF9A92"/><path d="M44,33.7c0,0-0.5,0.4-0.8-0.1c-0.3-0.4,0.4-0.7,0.3-1c-0.1-0.3-1-1-1.7-0.9c-0.7,0.1-1.3-0.7-0.8-1    c0.5-0.3,2.4-0.8,3.3,0.4C45.1,32.2,44.5,33.4,44,33.7z" fill="#DD5E54"/><path d="M43.4,31.7c-0.1-0.1,0-0.3,0.1-0.4c0.1-0.1,0.3-0.1,0.4,0c0.1,0.1,0,0.3-0.1,0.4    C43.6,31.8,43.5,31.8,43.4,31.7z" fill="#F1786B"/><path d="M43.7,32.2c0-0.1,0.1-0.3,0.3-0.3c0.2-0.1,0.3,0,0.4,0.1c0,0.1-0.1,0.3-0.3,0.3    C43.9,32.4,43.7,32.3,43.7,32.2z" fill="#F1786B"/><path d="M43.7,32.7c0-0.1,0.2-0.2,0.4-0.1s0.3,0.2,0.2,0.3c0,0.1-0.2,0.2-0.4,0.1C43.8,33,43.7,32.8,43.7,32.7z" fill="#F1786B"/><path d="M42.9,31.4c-0.1,0-0.2-0.2-0.1-0.4c0-0.2,0.2-0.3,0.3-0.3c0.1,0,0.2,0.2,0.1,0.4    C43.2,31.4,43,31.5,42.9,31.4z" fill="#F1786B"/><ellipse cx="42.3" cy="31.1" fill="#F1786B" rx="0.3" ry="0.2" transform="matrix(3.425269e-002 0.9994 -0.9994 3.425269e-002 71.9811 -12.2677)"/><path d="M41.8,31.5c-0.1,0.1-0.3,0-0.3-0.2c-0.1-0.2-0.1-0.4,0.1-0.4c0.1-0.1,0.3,0,0.3,0.2    C41.9,31.2,41.9,31.4,41.8,31.5z" fill="#F1786B"/></g><g><path d="M34.1,46.3c1.4-1.3,1.7-3.4,0.5-4.8c-1.1-1.3-3.2-1.4-4.7-0.1L34.1,46.3z" fill="#F1786B"/><path d="M33.3,45.3c-0.1-0.3,0.1-0.7,0.1-0.7l0.1-0.6l0.5-1l-1.6-1.1l-1.7,0.4L33.3,45.3z" fill="#FF9A92"/><path d="M33.8,44.6c0,0-0.5,0.4-0.8-0.1c-0.3-0.4,0.4-0.7,0.3-1c-0.1-0.3-1-1-1.7-0.9c-0.7,0.1-1.3-0.7-0.8-1    c0.5-0.3,2.4-0.8,3.3,0.4C35,43.2,34.4,44.3,33.8,44.6z" fill="#DD5E54"/><path d="M33.2,42.6c-0.1-0.1,0-0.3,0.1-0.4c0.1-0.1,0.3-0.1,0.4,0c0.1,0.1,0,0.3-0.1,0.4    C33.5,42.7,33.3,42.7,33.2,42.6z" fill="#F1786B"/><path d="M33.5,43.1c0-0.1,0.1-0.3,0.3-0.3c0.2-0.1,0.3,0,0.4,0.1s-0.1,0.3-0.3,0.3C33.7,43.3,33.5,43.3,33.5,43.1z    " fill="#F1786B"/><path d="M33.6,43.6c0-0.1,0.2-0.2,0.4-0.1c0.2,0.1,0.3,0.2,0.2,0.3c0,0.1-0.2,0.2-0.4,0.1    C33.6,43.9,33.5,43.8,33.6,43.6z" fill="#F1786B"/><path d="M32.7,42.4c-0.1,0-0.2-0.2-0.1-0.4c0-0.2,0.2-0.3,0.3-0.3c0.1,0,0.2,0.2,0.1,0.4    C33,42.3,32.9,42.4,32.7,42.4z" fill="#F1786B"/><ellipse cx="32.2" cy="42" fill="#F1786B" rx="0.3" ry="0.2" transform="matrix(3.436576e-002 0.9994 -0.9994 3.436576e-002 73.101 8.4347)"/><path d="M31.6,42.4c-0.1,0.1-0.3,0-0.3-0.2c-0.1-0.2-0.1-0.4,0.1-0.4c0.1-0.1,0.3,0,0.3,0.2    C31.8,42.2,31.7,42.4,31.6,42.4z" fill="#F1786B"/></g><g><path d="M36.7,22.1c0.6,1.9,2.4,3,4,2.4c1.7-0.5,2.5-2.5,2-4.3L36.7,22.1z" fill="#F1786B"/><path d="M37.9,21.7c0.3,0,0.6,0.4,0.6,0.4l0.5,0.3l0.7,0.9l1.6-1l0.3-1.7L37.9,21.7z" fill="#FF9A92"/><path d="M38.3,22.5c0,0-0.1-0.6,0.4-0.7c0.5-0.1,0.5,0.7,0.8,0.7c0.3,0,1.3-0.5,1.5-1.3c0.2-0.7,1.1-0.9,1.2-0.4    c0.1,0.5-0.3,2.6-1.7,3C39.1,24.3,38.3,23.2,38.3,22.5z" fill="#DD5E54"/><path d="M40.3,22.8c0.1,0,0.3,0.1,0.3,0.3c0.1,0.2,0,0.4-0.1,0.4c-0.1,0-0.3-0.1-0.3-0.3    C40.1,23,40.2,22.9,40.3,22.8z" fill="#F1786B"/><ellipse cx="39.7" cy="23.2" fill="#F1786B" rx="0.3" ry="0.2" transform="matrix(0.1423 -0.9898 0.9898 0.1423 11.0649 59.184)"/><path d="M39.3,22.7c0.1,0.1,0.1,0.3-0.1,0.4c-0.1,0.1-0.3,0.2-0.4,0.1c-0.1-0.1-0.1-0.3,0.1-0.4    C39,22.7,39.2,22.6,39.3,22.7z" fill="#F1786B"/><path d="M40.7,22.5c0.1-0.1,0.3-0.1,0.4,0c0.1,0.1,0.2,0.3,0.1,0.4c-0.1,0.1-0.3,0.1-0.4,0    C40.7,22.7,40.6,22.6,40.7,22.5z" fill="#F1786B"/><path d="M40.9,21.9c0-0.1,0.2-0.2,0.4-0.1c0.2,0.1,0.3,0.2,0.2,0.3c0,0.1-0.2,0.2-0.4,0.1    C41,22.2,40.9,22.1,40.9,21.9z" fill="#F1786B"/><ellipse cx="41.5" cy="21.4" fill="#F1786B" rx="0.3" ry="0.2" transform="matrix(-0.9993 3.735999e-002 -3.735999e-002 -0.9993 83.6987 41.1669)"/></g><g><path d="M19.5,22.2c-0.9,1.7-0.5,3.8,1,4.7c1.5,0.9,3.5,0.2,4.4-1.5L19.5,22.2z" fill="#F1786B"/><path d="M20.5,22.9c0.2,0.2,0.1,0.7,0.1,0.7l0.1,0.6l-0.1,1.1l1.9,0.5l1.5-1L20.5,22.9z" fill="#FF9A92"/><path d="M20.2,23.7c0,0,0.4-0.5,0.8-0.2s-0.2,0.9,0,1.1c0.2,0.2,1.3,0.6,1.9,0.2c0.6-0.4,1.4,0.2,1.1,0.6    c-0.3,0.4-2,1.5-3.2,0.8C19.6,25.5,19.8,24.2,20.2,23.7z" fill="#DD5E54"/><path d="M21.4,25.4c0.1,0.1,0.1,0.2,0,0.4C21.4,26,21.2,26,21.1,26c-0.1-0.1-0.1-0.2,0-0.4    C21.2,25.4,21.3,25.3,21.4,25.4z" fill="#F1786B"/><path d="M21,25c0.1,0.1,0,0.3-0.1,0.4c-0.1,0.1-0.3,0.1-0.4,0c-0.1-0.1,0-0.3,0.1-0.4C20.7,24.9,20.9,24.9,21,25z" fill="#F1786B"/><ellipse cx="20.5" cy="24.5" fill="#F1786B" rx="0.3" ry="0.2"/><ellipse cx="22" cy="25.8" fill="#F1786B" rx="0.3" ry="0.2" transform="matrix(-6.933883e-002 -0.9976 0.9976 -6.933883e-002 -2.2133 49.5131)"/><path d="M22.5,25.3c0.1,0,0.3,0.1,0.3,0.2c0.1,0.2,0,0.4-0.1,0.4c-0.1,0-0.3-0.1-0.3-0.2    C22.3,25.5,22.4,25.3,22.5,25.3z" fill="#F1786B"/><path d="M23,25c0.1-0.1,0.3-0.1,0.4,0.1c0.1,0.1,0.2,0.3,0.1,0.4c-0.1,0.1-0.3,0.1-0.4-0.1    C23,25.3,22.9,25.1,23,25z" fill="#F1786B"/></g><g><path d="M21,45.2c1.6,1.1,3.6,0.8,4.6-0.6c1-1.5,0.5-3.6-1-4.7L21,45.2z" fill="#F1786B"/><path d="M21.7,44.1c0.2-0.2,0.7,0,0.7,0l0.6,0l1.1,0.2l0.7-1.9l-0.8-1.6L21.7,44.1z" fill="#FF9A92"/><path d="M22.4,44.5c0,0-0.5-0.4-0.1-0.8c0.3-0.4,0.8,0.3,1.1,0.1c0.3-0.2,0.7-1.2,0.4-1.9    c-0.3-0.7,0.3-1.5,0.7-1.1c0.4,0.4,1.3,2.2,0.5,3.4C24.1,45.4,22.9,45,22.4,44.5z" fill="#DD5E54"/><path d="M24.2,43.5c0.1-0.1,0.3-0.1,0.4,0c0.1,0.1,0.2,0.3,0.1,0.4c-0.1,0.1-0.3,0.1-0.4,0    C24.2,43.8,24.1,43.6,24.2,43.5z" fill="#F1786B"/><path d="M23.8,43.9c0.1-0.1,0.3,0,0.4,0.2c0.1,0.2,0.1,0.3,0,0.4c-0.1,0.1-0.3,0-0.4-0.2    C23.6,44.1,23.7,43.9,23.8,43.9z" fill="#F1786B"/><ellipse cx="23.3" cy="44.4" fill="#F1786B" rx="0.3" ry="0.2" transform="matrix(0.1005 -0.9949 0.9949 0.1005 -23.2436 63.0686)"/><ellipse cx="24.6" cy="42.9" fill="#F1786B" rx="0.3" ry="0.2" transform="matrix(-0.9998 -2.080925e-002 2.080925e-002 -0.9998 48.3427 86.3693)"/><path d="M24.1,42.4c0-0.1,0.1-0.3,0.3-0.3c0.2-0.1,0.3,0,0.4,0.1c0,0.1-0.1,0.3-0.3,0.3    C24.4,42.6,24.2,42.5,24.1,42.4z" fill="#F1786B"/><path d="M24,41.8c-0.1-0.1,0-0.3,0.1-0.4c0.1-0.1,0.3-0.1,0.4,0c0.1,0.1,0,0.3-0.1,0.4C24.2,41.9,24,41.9,24,41.8z    " fill="#F1786B"/></g><g><path d="M23.1,35.5c0.2-2-1.1-3.7-2.8-3.8c-1.7-0.2-3.3,1.3-3.4,3.3L23.1,35.5z" fill="#F1786B"/><path d="M21.9,35.3c-0.2-0.1-0.4-0.6-0.4-0.6l-0.3-0.5l-0.3-1.1l-1.9,0.3L18,35L21.9,35.3z" fill="#FF9A92"/><path d="M21.8,34.4c0,0-0.1,0.6-0.6,0.5c-0.5-0.1-0.2-0.9-0.5-1c-0.3-0.1-1.4,0-1.8,0.6c-0.4,0.6-1.4,0.4-1.3-0.1    c0.1-0.5,1.2-2.3,2.6-2.1C21.7,32.6,22,33.8,21.8,34.4z" fill="#DD5E54"/><ellipse cx="20.1" cy="33.1" fill="#F1786B" rx="0.3" ry="0.2" transform="matrix(-8.305774e-002 0.9965 -0.9965 -8.305774e-002 54.7355 15.8247)"/><path d="M20.6,33.6c-0.1-0.1-0.1-0.2,0-0.4c0.1-0.2,0.3-0.2,0.4-0.2c0.1,0.1,0.1,0.2,0,0.4    C20.9,33.6,20.7,33.7,20.6,33.6z" fill="#F1786B"/><path d="M21,33.9c-0.1-0.1,0-0.3,0.2-0.4s0.3,0,0.4,0.1c0.1,0.1,0,0.3-0.2,0.4C21.2,34.1,21,34.1,21,33.9z" fill="#F1786B"/><path d="M19.5,33.6c-0.1,0.1-0.3,0-0.4-0.2c-0.1-0.2-0.1-0.3,0-0.4c0.1-0.1,0.3,0,0.4,0.2    C19.7,33.4,19.6,33.5,19.5,33.6z" fill="#F1786B"/><path d="M19.2,34c-0.1,0.1-0.3,0.1-0.4-0.1c-0.1-0.1-0.2-0.3-0.1-0.4c0.1-0.1,0.3-0.1,0.4,0.1    C19.2,33.7,19.2,33.9,19.2,34z" fill="#F1786B"/><path d="M18.8,34.4c0,0.1-0.2,0.2-0.4,0.1c-0.2-0.1-0.3-0.2-0.2-0.3c0-0.1,0.2-0.2,0.4-0.1    C18.7,34.2,18.8,34.3,18.8,34.4z" fill="#F1786B"/></g><g><path d="M30.3,25.9c1.8-0.7,2.7-2.7,2.1-4.3c-0.6-1.7-2.6-2.4-4.4-1.7L30.3,25.9z" fill="#F1786B"/><path d="M29.8,24.8c0-0.3,0.4-0.6,0.4-0.6l0.3-0.5l0.8-0.8l-1.1-1.6L28.4,21L29.8,24.8z" fill="#FF9A92"/><path d="M30.6,24.3c0,0-0.6,0.1-0.7-0.3c-0.1-0.5,0.7-0.5,0.7-0.9c0-0.3-0.6-1.3-1.3-1.4c-0.7-0.1-1-1.1-0.5-1.2    c0.5-0.1,2.5,0.1,3,1.5C32.2,23.3,31.2,24.2,30.6,24.3z" fill="#DD5E54"/><path d="M30.7,22.2c0-0.1,0.1-0.3,0.2-0.3c0.2-0.1,0.3,0,0.4,0.1c0,0.1-0.1,0.3-0.2,0.3    C30.9,22.4,30.7,22.3,30.7,22.2z" fill="#F1786B"/><ellipse cx="31.1" cy="22.8" fill="#F1786B" rx="0.3" ry="0.2" transform="matrix(-0.9975 -7.136583e-002 7.136583e-002 -0.9975 60.4813 47.816)"/><path d="M30.6,23.3c0.1-0.1,0.3-0.1,0.4,0c0.1,0.1,0.2,0.3,0.1,0.4c-0.1,0.1-0.3,0.1-0.4,0    C30.6,23.6,30.6,23.4,30.6,23.3z" fill="#F1786B"/><path d="M30.3,21.8c-0.1-0.1-0.1-0.3,0-0.4c0.1-0.2,0.3-0.2,0.4-0.1c0.1,0.1,0.1,0.3,0,0.4    C30.6,21.8,30.4,21.9,30.3,21.8z" fill="#F1786B"/><path d="M29.8,21.6c-0.1,0-0.2-0.2-0.1-0.4c0.1-0.2,0.2-0.3,0.3-0.3c0.1,0,0.2,0.2,0.1,0.4    C30,21.6,29.9,21.7,29.8,21.6z" fill="#F1786B"/><ellipse cx="29.2" cy="21.1" fill="#F1786B" rx="0.3" ry="0.2" transform="matrix(0.1102 0.9939 -0.9939 0.1102 46.9693 -10.1852)"/></g><g><polygon fill="#FDC77C" points="23.9,58.7 23.5,58.6 39.2,6.3 39.6,6.4   "/></g><g><polygon fill="#FDC77C" points="8.2,45.5 8,45.1 55,19.5 55.2,19.9   "/></g><g><polygon fill="#FDC77C" points="31.5,32.7 6.1,24.6 6.2,24.2 31.6,32.3   "/></g><g><polygon fill="#FDC77C" points="31.4,32.6 19,8.4 19.4,8.2 31.8,32.4   "/></g><g><path d="M47.4,45.3c-1,2.2-0.2,4.7,1.7,5.6c1.9,0.9,4.3-0.1,5.2-2.3L47.4,45.3z" fill="#F1786B"/><path d="M48.8,46c0.2,0.2,0.2,0.8,0.2,0.8l0.2,0.7l0,1.4l2.3,0.4l1.7-1.3L48.8,46z" fill="#FF9A92"/><path d="M48.5,47.1c0,0,0.4-0.7,0.9-0.3c0.5,0.3-0.1,1.1,0.1,1.3c0.3,0.3,1.6,0.6,2.3,0.1c0.7-0.5,1.8,0.1,1.4,0.6    c-0.4,0.6-2.3,2.1-3.8,1.3C47.9,49.3,48,47.7,48.5,47.1z" fill="#DD5E54"/><path d="M50.2,49c0.1,0.1,0.2,0.3,0.1,0.5c-0.1,0.2-0.3,0.3-0.4,0.3c-0.1-0.1-0.2-0.3-0.1-0.5    C49.8,49,50,48.9,50.2,49z" fill="#F1786B"/><path d="M49.6,48.5c0.1,0.1,0,0.3-0.1,0.5c-0.2,0.1-0.4,0.2-0.5,0c-0.1-0.1,0-0.3,0.1-0.5    C49.3,48.4,49.5,48.4,49.6,48.5z" fill="#F1786B"/><ellipse cx="48.9" cy="48" fill="#F1786B" rx="0.4" ry="0.3" transform="matrix(0.997 -7.747563e-002 7.747563e-002 0.997 -3.5735 3.9321)"/><ellipse cx="50.9" cy="49.4" fill="#F1786B" rx="0.4" ry="0.3" transform="matrix(-0.1536 -0.9881 0.9881 -0.1536 9.8963 107.2557)"/><path d="M51.4,48.7c0.1-0.1,0.3,0,0.4,0.2c0.1,0.2,0.1,0.4-0.1,0.5s-0.3,0-0.4-0.2C51.2,49,51.3,48.8,51.4,48.7z" fill="#F1786B"/><path d="M52,48.3c0.1-0.1,0.3-0.1,0.5,0c0.2,0.1,0.2,0.4,0.1,0.5c-0.1,0.1-0.3,0.1-0.5,0    C52,48.7,51.9,48.5,52,48.3z" fill="#F1786B"/></g><g><path d="M48.1,29.8c-1,2.2-0.2,4.7,1.7,5.6c1.9,0.9,4.3-0.1,5.2-2.3L48.1,29.8z" fill="#F1786B"/><path d="M49.5,30.4c0.2,0.2,0.2,0.8,0.2,0.8l0.2,0.7l0,1.4l2.3,0.4l1.7-1.3L49.5,30.4z" fill="#FF9A92"/><path d="M49.2,31.5c0,0,0.4-0.7,0.9-0.3c0.5,0.3-0.1,1.1,0.1,1.3c0.3,0.3,1.6,0.6,2.3,0.1c0.7-0.5,1.8,0.1,1.4,0.6    c-0.4,0.6-2.3,2.1-3.8,1.3C48.6,33.7,48.7,32.1,49.2,31.5z" fill="#DD5E54"/><path d="M50.8,33.4c0.1,0.1,0.2,0.3,0.1,0.5c-0.1,0.2-0.3,0.3-0.4,0.3c-0.1-0.1-0.2-0.3-0.1-0.5    C50.5,33.4,50.7,33.3,50.8,33.4z" fill="#F1786B"/><path d="M50.3,33c0.1,0.1,0,0.3-0.1,0.5c-0.2,0.1-0.4,0.2-0.5,0c-0.1-0.1,0-0.3,0.1-0.5C50,32.9,50.2,32.8,50.3,33    z" fill="#F1786B"/><ellipse cx="49.6" cy="32.4" fill="#F1786B" rx="0.4" ry="0.3" transform="matrix(0.997 -7.747755e-002 7.747755e-002 0.997 -2.365 3.9381)"/><ellipse cx="51.6" cy="33.8" fill="#F1786B" rx="0.4" ry="0.3" transform="matrix(-0.1538 -0.9881 0.9881 -0.1538 26.0762 89.9661)"/><path d="M52.1,33.1c0.1-0.1,0.3,0,0.4,0.2c0.1,0.2,0.1,0.4-0.1,0.5c-0.1,0.1-0.3,0-0.4-0.2    C51.9,33.4,52,33.2,52.1,33.1z" fill="#F1786B"/><path d="M52.7,32.8c0.1-0.1,0.3-0.1,0.5,0c0.2,0.1,0.2,0.4,0.1,0.5c-0.1,0.1-0.3,0.1-0.5,0    C52.7,33.1,52.6,32.9,52.7,32.8z" fill="#F1786B"/></g><g><path d="M17.7,16.7c-2.2-0.8-4.5,0.1-5.3,2.1c-0.7,2,0.4,4.4,2.6,5.2L17.7,16.7z" fill="#F1786B"/><path d="M17.1,18.1c-0.2,0.2-0.8,0.2-0.8,0.2l-0.7,0.2l-1.4,0.1l-0.2,2.4l1.4,1.6L17.1,18.1z" fill="#FF9A92"/><path d="M16.1,17.9c0,0,0.7,0.4,0.4,0.9c-0.3,0.5-1-0.1-1.3,0.2c-0.2,0.3-0.5,1.7,0.1,2.4c0.6,0.7,0,1.8-0.5,1.5    c-0.6-0.3-2.2-2.2-1.5-3.9C13.9,17.4,15.4,17.4,16.1,17.9z" fill="#DD5E54"/><path d="M14.4,19.7c-0.1,0.1-0.3,0.2-0.5,0.1c-0.2-0.1-0.3-0.3-0.3-0.4c0.1-0.1,0.3-0.2,0.5-0.1    C14.3,19.3,14.4,19.5,14.4,19.7z" fill="#F1786B"/><path d="M14.7,19.1c-0.1,0.1-0.3,0.1-0.5-0.1c-0.2-0.2-0.2-0.4-0.1-0.5c0.1-0.1,0.3-0.1,0.5,0.1    C14.8,18.7,14.8,19,14.7,19.1z" fill="#F1786B"/><ellipse cx="15.2" cy="18.3" fill="#F1786B" rx="0.4" ry="0.3" transform="matrix(0.1356 0.9908 -0.9908 0.1356 31.2807 0.7891)"/><path d="M14.4,20.4c0,0.2-0.1,0.3-0.3,0.4c-0.2,0.1-0.4,0-0.5-0.2c0-0.2,0.1-0.3,0.3-0.4    C14.1,20.1,14.3,20.2,14.4,20.4z" fill="#F1786B"/><path d="M14.7,21c0.1,0.1,0,0.3-0.2,0.5c-0.2,0.1-0.4,0.1-0.5,0c-0.1-0.1,0-0.3,0.2-0.5    C14.4,20.8,14.6,20.8,14.7,21z" fill="#F1786B"/><path d="M15.1,21.6c0.1,0.1,0.1,0.3,0,0.5c-0.1,0.2-0.3,0.3-0.5,0.2c-0.1-0.1-0.1-0.3,0-0.5    C14.8,21.6,15,21.5,15.1,21.6z" fill="#F1786B"/></g><g><path d="M13.7,31.2c-2.2-0.8-4.5,0.1-5.3,2.1c-0.7,2,0.4,4.4,2.6,5.2L13.7,31.2z" fill="#F1786B"/><path d="M13.1,32.7c-0.2,0.2-0.8,0.2-0.8,0.2l-0.7,0.2l-1.4,0.1l-0.2,2.4l1.4,1.6L13.1,32.7z" fill="#FF9A92"/><path d="M12.1,32.4c0,0,0.7,0.4,0.4,0.9c-0.3,0.5-1-0.1-1.3,0.2c-0.2,0.3-0.5,1.7,0.1,2.4c0.6,0.7,0,1.8-0.5,1.5    s-2.2-2.2-1.5-3.9C9.9,31.9,11.4,32,12.1,32.4z" fill="#DD5E54"/><path d="M10.3,34.2c-0.1,0.1-0.3,0.2-0.5,0.1c-0.2-0.1-0.3-0.3-0.3-0.4c0.1-0.1,0.3-0.2,0.5-0.1    C10.3,33.9,10.4,34.1,10.3,34.2z" fill="#F1786B"/><path d="M10.7,33.6c-0.1,0.1-0.3,0.1-0.5-0.1c-0.2-0.2-0.2-0.4-0.1-0.5c0.1-0.1,0.3-0.1,0.5,0.1    C10.8,33.3,10.8,33.5,10.7,33.6z" fill="#F1786B"/><ellipse cx="11.2" cy="32.9" fill="#F1786B" rx="0.4" ry="0.3" transform="matrix(0.1357 0.9907 -0.9907 0.1357 42.2106 17.3263)"/><path d="M10.4,34.9c0,0.2-0.1,0.3-0.3,0.4c-0.2,0.1-0.4,0-0.5-0.2c0-0.2,0.1-0.3,0.3-0.4    C10.1,34.7,10.3,34.7,10.4,34.9z" fill="#F1786B"/><path d="M10.7,35.5c0.1,0.1,0,0.3-0.2,0.5c-0.2,0.1-0.4,0.1-0.5,0s0-0.3,0.2-0.5C10.4,35.3,10.6,35.4,10.7,35.5z" fill="#F1786B"/><path d="M11.1,36.1c0.1,0.1,0.1,0.3,0,0.5c-0.1,0.2-0.3,0.3-0.5,0.2c-0.1-0.1-0.1-0.3,0-0.5    C10.7,36.1,10.9,36,11.1,36.1z" fill="#F1786B"/></g><g><path d="M14.1,45c-0.7,2.3,0.4,4.7,2.4,5.3s4.2-0.6,4.9-2.9L14.1,45z" fill="#F1786B"/><path d="M15.5,45.5c0.3,0.2,0.3,0.8,0.3,0.8l0.3,0.7l0.1,1.4l2.3,0.1L20,47L15.5,45.5z" fill="#FF9A92"/><path d="M15.4,46.6c0,0,0.3-0.7,0.9-0.4c0.5,0.3,0,1.1,0.3,1.3c0.3,0.2,1.6,0.4,2.3-0.2c0.7-0.6,1.8-0.1,1.5,0.4    c-0.3,0.6-2,2.4-3.7,1.8C15,48.9,14.9,47.3,15.4,46.6z" fill="#DD5E54"/><path d="M17.2,48.3c0.1,0,0.2,0.3,0.1,0.5c-0.1,0.2-0.2,0.4-0.4,0.3c-0.1,0-0.2-0.3-0.1-0.5    C16.9,48.4,17,48.2,17.2,48.3z" fill="#F1786B"/><path d="M16.6,47.9c0.1,0.1,0.1,0.3-0.1,0.5c-0.2,0.2-0.4,0.2-0.5,0.1c-0.1-0.1-0.1-0.3,0.1-0.5    C16.2,47.9,16.5,47.8,16.6,47.9z" fill="#F1786B"/><path d="M16.2,47.4c0,0.2-0.1,0.3-0.3,0.4c-0.2,0-0.4,0-0.4-0.2c0-0.2,0.1-0.3,0.3-0.4    C16,47.2,16.2,47.3,16.2,47.4z" fill="#F1786B"/><path d="M17.8,48.2c0.1,0,0.3,0.1,0.4,0.3c0.1,0.2,0,0.4-0.2,0.5c-0.1,0-0.3-0.1-0.4-0.3    C17.6,48.5,17.7,48.3,17.8,48.2z" fill="#F1786B"/><path d="M18.4,47.9c0.1-0.1,0.3,0,0.5,0.2c0.1,0.2,0.1,0.4,0,0.5c-0.1,0.1-0.3,0-0.5-0.2    C18.3,48.2,18.3,47.9,18.4,47.9z" fill="#F1786B"/><path d="M19,47.4c0.1-0.1,0.3-0.1,0.5,0c0.2,0.1,0.3,0.3,0.2,0.5c-0.1,0.1-0.3,0.1-0.5,0    C19,47.8,18.9,47.6,19,47.4z" fill="#F1786B"/></g><g><path d="M33.7,49.4c-1.8,1.5-2.3,4.1-1,5.8c1.3,1.7,3.8,1.9,5.7,0.5L33.7,49.4z" fill="#F1786B"/><path d="M34.6,50.6c0.1,0.3-0.2,0.8-0.2,0.8l-0.2,0.7l-0.7,1.2l1.9,1.5l2.1-0.4L34.6,50.6z" fill="#FF9A92"/><path d="M33.9,51.4c0,0,0.7-0.4,1,0.1c0.3,0.5-0.6,0.9-0.5,1.2c0.1,0.4,1.1,1.3,2,1.2s1.5,0.9,1,1.2    c-0.6,0.3-3,0.8-4-0.7C32.3,53.1,33.1,51.8,33.9,51.4z" fill="#DD5E54"/><path d="M34.4,53.9c0.1,0.1,0,0.3-0.1,0.5c-0.2,0.1-0.4,0.2-0.5,0c-0.1-0.1,0-0.3,0.1-0.5    C34.1,53.8,34.3,53.8,34.4,53.9z" fill="#F1786B"/><path d="M34.1,53.3c0,0.2-0.1,0.3-0.3,0.4c-0.2,0-0.4,0-0.5-0.2c0-0.2,0.1-0.3,0.3-0.4    C33.9,53,34.1,53.1,34.1,53.3z" fill="#F1786B"/><path d="M34.1,52.6c-0.1,0.1-0.3,0.2-0.5,0.1c-0.2-0.1-0.3-0.3-0.3-0.4c0.1-0.1,0.3-0.2,0.5-0.1    C34,52.3,34.2,52.5,34.1,52.6z" fill="#F1786B"/><path d="M35,54.2c0.1,0,0.2,0.3,0.1,0.5c-0.1,0.2-0.2,0.4-0.4,0.3c-0.1,0-0.2-0.3-0.1-0.5    C34.7,54.3,34.9,54.2,35,54.2z" fill="#F1786B"/><ellipse cx="35.7" cy="54.7" fill="#F1786B" rx="0.4" ry="0.3" transform="matrix(2.032744e-002 -0.9998 0.9998 2.032744e-002 -19.726 89.2135)"/><path d="M36.4,54.3c0.1-0.1,0.3,0.1,0.4,0.3c0.1,0.2,0,0.4-0.1,0.5c-0.1,0.1-0.3-0.1-0.4-0.3    C36.2,54.5,36.2,54.3,36.4,54.3z" fill="#F1786B"/></g><g><path d="M41.8,11.6c-1,2.2-0.2,4.7,1.7,5.6c1.9,0.9,4.3-0.1,5.2-2.3L41.8,11.6z" fill="#F1786B"/><path d="M43.2,12.3c0.2,0.2,0.2,0.8,0.2,0.8l0.2,0.7l0,1.4l2.3,0.4l1.7-1.3L43.2,12.3z" fill="#FF9A92"/><path d="M42.9,13.3c0,0,0.4-0.7,0.9-0.3c0.5,0.3-0.1,1.1,0.1,1.3c0.3,0.3,1.6,0.6,2.3,0.1c0.7-0.5,1.8,0.1,1.4,0.6    c-0.4,0.6-2.3,2.1-3.8,1.3C42.3,15.6,42.4,14,42.9,13.3z" fill="#DD5E54"/><path d="M44.5,15.3c0.1,0.1,0.2,0.3,0.1,0.5c-0.1,0.2-0.3,0.3-0.4,0.3c-0.1-0.1-0.2-0.3-0.1-0.5    C44.2,15.3,44.3,15.2,44.5,15.3z" fill="#F1786B"/><path d="M43.9,14.8c0.1,0.1,0,0.3-0.1,0.5c-0.2,0.1-0.4,0.2-0.5,0s0-0.3,0.1-0.5C43.6,14.7,43.8,14.7,43.9,14.8z" fill="#F1786B"/><ellipse cx="43.2" cy="14.3" fill="#F1786B" rx="0.4" ry="0.3" transform="matrix(0.997 -7.747755e-002 7.747755e-002 0.997 -0.9792 3.3918)"/><ellipse cx="45.2" cy="15.7" fill="#F1786B" rx="0.4" ry="0.3" transform="matrix(-0.1538 -0.9881 0.9881 -0.1538 36.6699 62.773)"/><path d="M45.7,15c0.1-0.1,0.3,0,0.4,0.2c0.1,0.2,0.1,0.4-0.1,0.5c-0.1,0.1-0.3,0-0.4-0.2    C45.6,15.3,45.6,15,45.7,15z" fill="#F1786B"/><path d="M46.4,14.6c0.1-0.1,0.3-0.1,0.5,0c0.2,0.1,0.2,0.4,0.1,0.5c-0.1,0.1-0.3,0.1-0.5,0    C46.3,15,46.3,14.8,46.4,14.6z" fill="#F1786B"/></g><g><path d="M27.6,9.7c-1,2.2-0.2,4.7,1.7,5.6c1.9,0.9,4.3-0.1,5.2-2.3L27.6,9.7z" fill="#F1786B"/><path d="M29,10.3c0.2,0.2,0.2,0.8,0.2,0.8l0.2,0.7l0,1.4l2.3,0.4l1.7-1.3L29,10.3z" fill="#FF9A92"/><path d="M28.7,11.4c0,0,0.4-0.7,0.9-0.3c0.5,0.3-0.1,1.1,0.1,1.3c0.3,0.3,1.6,0.6,2.3,0.1c0.7-0.5,1.8,0.1,1.4,0.6    c-0.4,0.6-2.3,2.1-3.8,1.3C28.1,13.6,28.2,12,28.7,11.4z" fill="#DD5E54"/><path d="M30.3,13.3c0.1,0.1,0.2,0.3,0.1,0.5C30.3,14,30.1,14.1,30,14c-0.1-0.1-0.2-0.3-0.1-0.5    C30,13.3,30.2,13.2,30.3,13.3z" fill="#F1786B"/><path d="M29.8,12.8c0.1,0.1,0,0.3-0.1,0.5c-0.2,0.1-0.4,0.2-0.5,0s0-0.3,0.1-0.5C29.4,12.7,29.7,12.7,29.8,12.8z" fill="#F1786B"/><ellipse cx="29.1" cy="12.3" fill="#F1786B" rx="0.4" ry="0.3" transform="matrix(0.997 -7.760137e-002 7.760137e-002 0.997 -0.8693 2.292)"/><ellipse cx="31" cy="13.7" fill="#F1786B" rx="0.4" ry="0.3" transform="matrix(-0.1538 -0.9881 0.9881 -0.1538 22.2858 46.486)"/><path d="M31.6,13c0.1-0.1,0.3,0,0.4,0.2c0.1,0.2,0.1,0.4-0.1,0.5c-0.1,0.1-0.3,0-0.4-0.2    C31.4,13.3,31.4,13.1,31.6,13z" fill="#F1786B"/><path d="M32.2,12.7c0.1-0.1,0.3-0.1,0.5,0s0.2,0.4,0.1,0.5c-0.1,0.1-0.3,0.1-0.5,0C32.2,13,32.1,12.8,32.2,12.7z" fill="#F1786B"/></g><path d="M54.2,25.7c-0.2,0.6-0.8,0.9-1.4,0.7c-0.6-0.2-0.9-0.8-0.7-1.4c0.2-0.6,0.8-0.9,1.4-0.7   C54,24.5,54.3,25.1,54.2,25.7z" fill="#445C6C"/><path d="M47,28.5c-0.1,0.3-0.4,0.5-0.8,0.4c-0.3-0.1-0.5-0.5-0.4-0.8c0.1-0.3,0.4-0.5,0.8-0.4   C47,27.8,47.1,28.2,47,28.5z" fill="#445C6C"/><path d="M37.2,26.5c-0.1,0.3-0.5,0.5-0.8,0.4c-0.3-0.1-0.5-0.5-0.4-0.8c0.1-0.3,0.5-0.5,0.8-0.4   C37.1,25.8,37.3,26.1,37.2,26.5z" fill="#445C6C"/><path d="M40.2,16.8c-0.1,0.5-0.6,0.7-1.1,0.6c-0.5-0.1-0.7-0.6-0.6-1.1c0.1-0.5,0.6-0.7,1.1-0.6   C40.1,15.8,40.3,16.3,40.2,16.8z" fill="#445C6C"/><path d="M28,17.3c-0.1,0.3-0.4,0.5-0.7,0.4c-0.3-0.1-0.4-0.4-0.4-0.7c0.1-0.3,0.4-0.5,0.7-0.4   C27.9,16.7,28.1,17,28,17.3z" fill="#445C6C"/><path d="M20.5,18.9c-0.1,0.4-0.5,0.6-0.8,0.5c-0.4-0.1-0.5-0.5-0.4-0.9c0.1-0.4,0.5-0.6,0.8-0.5   C20.4,18.1,20.6,18.5,20.5,18.9z" fill="#445C6C"/><path d="M18.6,24.8c-0.2,0.5-0.7,0.8-1.2,0.6c-0.5-0.2-0.8-0.7-0.6-1.2c0.2-0.5,0.7-0.8,1.2-0.6   C18.5,23.7,18.8,24.3,18.6,24.8z" fill="#445C6C"/><path d="M28.2,29.3c-0.2,0.5-0.7,0.8-1.2,0.7c-0.5-0.2-0.8-0.7-0.6-1.3c0.2-0.5,0.7-0.8,1.2-0.7   C28,28.2,28.3,28.7,28.2,29.3z" fill="#445C6C"/><path d="M26.5,33.3c-0.1,0.3-0.4,0.5-0.7,0.4c-0.3-0.1-0.4-0.4-0.4-0.7c0.1-0.3,0.4-0.5,0.7-0.4   C26.4,32.7,26.6,33.1,26.5,33.3z" fill="#445C6C"/><path d="M16.1,37.1c-0.1,0.5-0.6,0.7-1.1,0.6c-0.4-0.1-0.7-0.6-0.6-1.1c0.1-0.5,0.6-0.7,1.1-0.6   C16,36.1,16.2,36.6,16.1,37.1z" fill="#445C6C"/><path d="M18.7,43c-0.1,0.2-0.3,0.3-0.5,0.2C18,43.2,17.9,43,18,42.8c0.1-0.2,0.3-0.3,0.5-0.2   C18.6,42.6,18.8,42.8,18.7,43z" fill="#445C6C"/><path d="M22.6,53.4c-0.2,0.5-0.7,0.8-1.2,0.7c-0.5-0.2-0.8-0.7-0.6-1.3c0.2-0.5,0.7-0.8,1.2-0.7   C22.5,52.3,22.8,52.8,22.6,53.4z" fill="#445C6C"/><path d="M29.2,55.8c-0.2,0.5-0.7,0.9-1.3,0.7c-0.5-0.2-0.8-0.8-0.7-1.3c0.2-0.5,0.7-0.9,1.3-0.7   C29,54.7,29.3,55.3,29.2,55.8z" fill="#445C6C"/><path d="M30.3,47.6c-0.1,0.2-0.3,0.3-0.4,0.2c-0.2-0.1-0.3-0.3-0.2-0.5c0.1-0.2,0.3-0.3,0.4-0.2   C30.2,47.2,30.3,47.4,30.3,47.6z" fill="#445C6C"/><path d="M37.8,48.9c-0.2,0.5-0.7,0.8-1.2,0.6c-0.5-0.2-0.8-0.7-0.6-1.2c0.2-0.5,0.7-0.8,1.2-0.6   C37.7,47.9,38,48.4,37.8,48.9z" fill="#445C6C"/><path d="M49,43.4c-0.2,0.5-0.7,0.8-1.3,0.7c-0.5-0.2-0.8-0.7-0.7-1.3c0.2-0.5,0.7-0.8,1.3-0.7   C48.9,42.3,49.2,42.9,49,43.4z" fill="#445C6C"/><path d="M44.3,47.7c-0.1,0.4-0.6,0.7-1,0.5c-0.4-0.1-0.6-0.6-0.5-1c0.1-0.4,0.6-0.7,1-0.5   C44.2,46.8,44.5,47.2,44.3,47.7z" fill="#445C6C"/><path d="M48.5,54.9c-0.2,0.5-0.7,0.8-1.2,0.7c-0.5-0.2-0.8-0.7-0.7-1.3c0.2-0.5,0.7-0.8,1.2-0.7   C48.4,53.7,48.7,54.3,48.5,54.9z" fill="#445C6C"/><path d="M37.9,32.3c-0.2,0.6-0.8,0.9-1.3,0.7c-0.6-0.2-0.9-0.8-0.7-1.4c0.2-0.6,0.8-0.9,1.3-0.7   C37.8,31.1,38.1,31.8,37.9,32.3z" fill="#445C6C"/><path d="M23.3,38.8c0.3,0,0.7,0,1-0.1c0.4-0.2,0.6-0.5,0.9-0.8c0.3-0.3,0.7-0.6,1-0.4c0,0.2-0.1,0.3-0.2,0.5   c-0.4,0.5-0.8,1-1.4,1.1c-0.2,0-0.4,0-0.6,0.1c-0.4,0.2-0.5,0.6-0.5,1c0-0.1-1.7,0-1.8-0.5C21.7,39,22.9,38.8,23.3,38.8z" fill="#5AC8AE"/><path d="M30.4,49c-0.4,0.4-0.2,1.2-0.7,1.6c-0.2,0.1-0.4,0.2-0.6,0.3c-0.3,0.1-0.5,0.5-0.5,0.8   c0.5-0.6,1.5-0.1,2-0.7c0.2-0.2,0.2-0.5,0.3-0.8c0.3-0.6,1.3-1,1-1.7C31.5,48.8,30.9,48.7,30.4,49z" fill="#5AC8AE"/><path d="M54,43.7c0.1-0.1,0.2-0.1,0.3-0.1c0.1,0,0.3,0,0.4,0.1c0.5,0.2,1,0.3,1.4,0.5c-0.8,0.6-1.8,0.9-2.7,0.8   c-0.2,0-0.3,0-0.5,0c-0.2,0-0.3,0.2-0.4,0.3c-0.5,0.3-2.3,0.4-1.6-0.6C51.2,44.1,53.3,44,54,43.7z" fill="#5AC8AE"/><path d="M48.2,35.5c0.1,0.1,0.2,0.2,0.3,0.3c0.5,0.3,1,0.6,1.4,0.8c0.8,0.5,1.6,0.9,2.5,1c-1.3,0-2.6-0.1-3.9-0.5   c-0.5-0.2-1.1-0.4-1.4-0.8c-0.3-0.4-0.9-2-0.2-2.4C47.7,33.5,47.9,35.1,48.2,35.5z" fill="#5AC8AE"/><path d="M46.5,20.2c0.4,0.1,0.9-0.1,1.2-0.4c0.3-0.3,0.5-0.7,0.8-1.1c0.1-0.1,0.2-0.2,0.3-0.2   c0.1,0,0.2,0.1,0.3,0.1c0.5,0.2,1,0.3,1.5,0.1c-0.5,0.4-0.7,1-1,1.6c-0.8,1.2-1.9,1.2-3.1,1.2c-0.6,0-1.1,0.4-1.3-0.4   C45.2,20.2,46,20,46.5,20.2z" fill="#5AC8AE"/><path d="M35,7.7c0.5-0.2,1.1-0.4,1.7-0.3c-0.3,1-1.4,1.8-2.4,1.6c-0.3,0-0.5-0.1-0.8-0.1c-0.4,0-0.8,0.3-1.2,0.2   C32.5,8.1,34.2,8,35,7.7z" fill="#5AC8AE"/><path d="M29.9,16.8c-0.1-0.1-0.2-0.3,0-0.4c0.1,0,0.2,0,0.3,0c0.6,0.2,1.1,0.5,1.6,0.9c0.6,0.4,2.4,1.8,1.1,2.1   C31.7,19.7,30.4,17.5,29.9,16.8z" fill="#5AC8AE"/><path d="M23.5,21.4c0.8,0.5,1.5,1.2,2.1,1.9c-0.5-0.1-0.9-0.2-1.4-0.4c-0.6-0.2-1.3-0.3-1.9-0.7   C20.5,21.1,22.1,20.5,23.5,21.4z" fill="#5AC8AE"/><path d="M13.4,29.1c-0.6-0.2-1.2-0.3-1.8-0.5c-0.6-0.2-1.1-0.8-1.1-1.4c0.8,0.2,1.6,0.5,2.4,0.7   c0.4,0.1,0.9,0.3,1.2,0.6c0.2,0.2,0.3,0.4,0.5,0.5c0.3,0.2,2.4,0.8,1.3,1.5C15.3,30.8,14,29.3,13.4,29.1z" fill="#5AC8AE"/><path d="M13.1,39.2c-1,0.9-1.9,1.8-2.9,2.7c0.4,0,0.8-0.2,1-0.6c0.2-0.3,0.3-0.7,0.7-0.9c0.1-0.1,0.3-0.1,0.4-0.1   C12.8,40.2,12.8,39.5,13.1,39.2" fill="#5AC8AE"/><path d="M21.1,50.6c0.4-0.2,0.8-0.4,0.9-0.8c0.1-0.2,0.1-0.4,0.3-0.4c-0.2,1.1-0.5,2.4-1.4,2.9   c-0.2,0.1-0.5,0.2-0.7,0.3C19.4,53,16.9,54,18,52.2C18.6,51.3,20.3,50.9,21.1,50.6z" fill="#5AC8AE"/></g></svg>