<?xml version="1.0" ?><!DOCTYPE svg  PUBLIC '-//W3C//DTD SVG 1.1//EN'  'http://www.w3.org/Graphics/SVG/1.1/DTD/svg11.dtd'><svg height="512px" id="Layer_1" style="enable-background:new 0 0 512 512;" version="1.1" viewBox="0 0 512 512" width="512px" xml:space="preserve" xmlns="http://www.w3.org/2000/svg" xmlns:xlink="http://www.w3.org/1999/xlink"><style type="text/css">
<![CDATA[
	.st0{fill:#ABC45B;}
	.st1{fill:#AC4736;}
	.st2{fill:#499444;}
	.st3{clip-path:url(#SVGID_2_);fill:url(#SVGID_3_);}
	.st4{fill:#AE8635;}
	.st5{fill:#E0D8BD;}
	.st6{fill:#E11F26;}
	.st7{fill:#E15263;}
	.st8{fill:#E1544A;}
	.st9{fill:#E17827;}
	.st10{fill:#E1B623;}
	.st11{fill:#E28126;}
	.st12{fill:#E2A15A;}
	.st13{fill:#E2BD6A;}
	.st14{fill:#E2E2E2;}
	.st15{fill:#E35225;}
	.st16{fill:#E3AA24;}
	.st17{fill:#E3C19B;}
	.st18{fill:#E3DFC6;}
	.st19{fill:#1598C5;}
	.st20{fill:#E4BB92;}
	.st21{fill:#E52828;}
	.st22{fill:#E54141;}
	.st23{fill:#E56A5A;}
	.st24{fill:#4ABC96;}
	.st25{fill:#E5AA17;}
	.st26{fill:#E5C67F;}
	.st27{fill:#E5E5E5;}
	.st28{fill:#E7C183;}
	.st29{fill:#E7CF65;}
	.st30{fill:#4D8740;}
	.st31{fill:#E8AD7A;}
	.st32{fill:#E8B04C;}
	.st33{fill:#E8CF64;}
	.st34{fill:#E8D7C9;}
	.st35{fill:#E98F23;}
	.st36{fill:#E99323;}
	.st37{fill:#E9E5D7;}
	.st38{fill:#808080;}
	.st39{fill:#81C3D2;}
	.st40{fill:#B15A27;}
	.st41{fill:#827564;}
	.st42{fill:#B1AE36;}
	.st43{fill:#834B1F;}
	.st44{fill:#B2A98E;}
	.st45{fill:#846A35;}
	.st46{fill:#B4D56E;}
	.st47{fill:#B4D85B;}
	.st48{fill:#1A1A1B;}
	.st49{fill:#864F4F;}
	.st50{fill:#EA4949;}
	.st51{fill:#EA7724;}
	.st52{fill:#EA8023;}
	.st53{fill:#EA9F3C;}
	.st54{fill:#EAD063;}
	.st55{fill:#EAD760;}
	.st56{fill:#EAE1BB;}
	.st57{fill:#EAE8EA;}
	.st58{fill:#EAEAEB;}
	.st59{fill:#B72042;}
	.st60{fill:#B73535;}
	.st61{fill:#B79751;}
	.st62{fill:#EB9C22;}
	.st63{fill:#B7E3F3;}
	.st64{fill:#EC1C24;}
	.st65{fill:#EC1C2B;}
	.st66{fill:#EC2224;}
	.st67{fill:#B8C973;}
	.st68{fill:#ECB660;}
	.st69{fill:#ECDE7A;}
	.st70{fill:#ECE5CB;}
	.st71{fill:#EDC51B;}
	.st72{fill:#EDDEA2;}
	.st73{fill:#EE3A36;}
	.st74{fill:#EEE26F;}
	.st75{fill:#EF5454;}
	.st76{fill:#EFCE89;}
	.st77{fill:#EFEAD1;}
	.st78{fill:#EFEFEF;}
	.st79{fill:#543D18;}
	.st80{fill:#55C9F3;}
	.st81{fill:#568C4C;}
	.st82{fill:#8A5D3B;}
	.st83{fill:#8B8B8C;}
	.st84{fill:#8BC53F;}
	.st85{fill:#BB4127;}
	.st86{fill:#58841F;}
	.st87{fill:#BBB194;}
	.st88{fill:#BC3D40;}
	.st89{fill:#8E5932;}
	.st90{fill:#BE1E2D;}
	.st91{fill:#8F8547;}
	.st92{fill:#F05A28;}
	.st93{fill:#BFC0C1;}
	.st94{fill:#F0A91E;}
	.st95{fill:#F0B122;}
	.st96{fill:#F0B234;}
	.st97{fill:#F17921;}
	.st98{fill:#F19438;}
	.st99{fill:#F1A65B;}
	.st100{fill:#231F20;}
	.st101{fill:#F1B851;}
	.st102{fill:#F1C380;}
	.st103{fill:#F1CE6A;}
	.st104{fill:#F1E2A3;}
	.st105{fill:#F1F1F2;}
	.st106{fill:#F23636;}
	.st107{fill:#F2B225;}
	.st108{fill:#F2E2E2;}
	.st109{fill:#F2E78A;}
	.st110{fill:#F2ECC6;}
	.st111{fill:#F3B022;}
	.st112{fill:#F3B445;}
	.st113{fill:#F3CD9C;}
	.st114{fill:#F3F3F3;}
	.st115{fill:#258999;}
	.st116{fill:#25B7D3;}
	.st117{fill:#F48D3E;}
	.st118{fill:#F4C778;}
	.st119{fill:#F4D0AE;}
	.st120{fill:#F4E3D3;}
	.st121{fill:#5A4A42;}
	.st122{fill:#26A9E0;}
	.st123{clip-path:url(#SVGID_8_);fill:#3B2314;}
	.st124{fill:#F59121;}
	.st125{fill:#F5E6DB;}
	.st126{fill:#5B4F3F;}
	.st127{fill:#F6921E;}
	.st128{fill:#F69221;}
	.st129{fill:#F69821;}
	.st130{fill:#F6C413;}
	.st131{fill:#F6F6F5;}
	.st132{fill:#5C2A2A;}
	.st133{fill:#F7B56B;}
	.st134{fill:#F7D857;}
	.st135{fill:#F7EBE3;}
	.st136{fill:#F8CDCF;}
	.st137{fill:#F8E07B;}
	.st138{fill:#F8E37F;}
	.st139{fill:#F8F5EA;}
	.st140{fill:#F8F9E5;}
	.st141{fill:#F9C348;}
	.st142{fill:#F9E17A;}
	.st143{fill:#F9EBB4;}
	.st144{fill:#F9EC31;}
	.st145{fill:#C08352;}
	.st146{fill-rule:evenodd;clip-rule:evenodd;fill:#EF6358;}
	.st147{fill:#91BC3C;}
	.st148{clip-path:url(#SVGID_5_);fill:url(#SVGID_6_);}
	.st149{fill:#C11B1B;}
	.st150{fill:#C1272D;}
	.st151{fill:#C13B3B;}
	.st152{fill:#C13D1F;}
	.st153{fill:#C16028;}
	.st154{fill:#929497;}
	.st155{fill:#C1B49A;}
	.st156{fill:#C25428;}
	.st157{fill:#C36D29;}
	.st158{fill:#C3996B;}
	.st159{fill:#952F25;}
	.st160{fill:#C5AE2E;}
	.st161{fill:#C63447;}
	.st162{fill:#C6C5C5;}
	.st163{fill:#FAAF3C;}
	.st164{fill:#FAAF40;}
	.st165{fill:#FABC3D;}
	.st166{fill:#C7EFDC;}
	.st167{fill:#FBB569;}
	.st168{fill:#FBC651;}
	.st169{fill:#FCB72B;}
	.st170{fill:#FCCF99;}
	.st171{fill:#FCDEA9;}
	.st172{fill:#FDBF23;}
	.st173{fill:#FDD600;}
	.st174{fill:#FDD842;}
	.st175{fill:#FDDD65;}
	.st176{fill:#FDDEBF;}
	.st177{fill:#FDE1CA;}
	.st178{fill:#FDF6B5;}
	.st179{fill-rule:evenodd;clip-rule:evenodd;fill:#BE1E2D;}
	.st180{fill:#60574C;}
	.st181{fill:none;stroke:#FFFFFF;stroke-width:13.7822;stroke-miterlimit:10;}
	.st182{fill:#FFD683;}
	.st183{fill:#FFD684;}
	.st184{fill:#FFDAAA;}
	.st185{fill:#FFF100;}
	.st186{fill:#FFFDFF;}
	.st187{fill:#FFFFFF;}
	.st188{fill-rule:evenodd;clip-rule:evenodd;fill:#231F20;}
	.st189{fill:#9A8479;}
	.st190{fill:#9B1C29;}
	.st191{fill:#CBA159;}
	.st192{fill:#CC3828;}
	.st193{fill:#697C2C;}
	.st194{fill:#9D5024;}
	.st195{fill:#CDCCCC;}
	.st196{fill:#CDE580;}
	.st197{fill:#CE4927;}
	.st198{fill:#32BEA6;}
	.st199{fill:#334D5C;}
	.st200{fill:#37B34A;}
	.st201{fill-rule:evenodd;clip-rule:evenodd;fill:#FAAF40;}
	.st202{fill:#009345;}
	.st203{fill:#00ADEE;}
	.st204{fill-rule:evenodd;clip-rule:evenodd;fill:#603813;}
	.st205{fill:#D0425B;}
	.st206{fill:#D0D2D3;}
	.st207{fill-rule:evenodd;clip-rule:evenodd;fill:#FFFFFF;}
	.st208{fill:#D17E2E;}
	.st209{fill:#D1CAA8;}
	.st210{fill:#D22946;}
	.st211{fill:#D31C1C;}
	.st212{fill:#D3D1D0;}
	.st213{fill:#D4BE29;}
	.st214{fill:#3B2314;}
	.st215{fill:#3B3A3C;}
	.st216{fill:#D61E1E;}
	.st217{fill:#D62427;}
	.st218{fill:#D6E88B;}
	.st219{fill:#D84456;}
	.st220{fill:#D8542F;}
	.st221{fill:#D8553F;}
	.st222{fill:#D8B45D;}
	.st223{fill:#D8D8D7;}
	.st224{fill:#702414;}
	.st225{fill:#3FB6D6;}
	.st226{fill:#716558;}
	.st227{fill:#718C30;}
	.st228{fill:#726756;}
	.st229{fill:#A31E22;}
	.st230{fill:#754C28;}
	.st231{fill:#A4A3A3;}
	.st232{fill:#A58749;}
	.st233{fill:#76692A;}
	.st234{fill:#0B301B;}
	.st235{fill:#A67D53;}
	.st236{fill:#DA1F26;}
	.st237{fill-rule:evenodd;clip-rule:evenodd;fill:#6B873A;}
	.st238{fill:#DB4F26;}
	.st239{fill:#DBB30B;}
	.st240{fill:#DBCC23;}
	.st241{fill:#A87C4F;}
	.st242{fill:#796027;}
	.st243{fill-rule:evenodd;clip-rule:evenodd;fill:#006838;}
	.st244{fill:#404041;}
	.st245{fill:#414042;}
]]>
</style><g><g><g><g><g><g><path class="st50" d="M7.921,256.004c0-137.021,111.07-248.083,248.083-248.083c137.005,0,248.075,111.062,248.075,248.083        c0,137.005-111.07,248.075-248.075,248.075C118.991,504.079,7.921,393.009,7.921,256.004z"/></g></g></g></g></g><g><g><g><g><path class="st53" d="M257.411,64.986c-104.682,0-189.533,84.859-189.533,189.533c0,52.62,21.444,100.214,56.056,134.557       L257.411,254.52v189.533c104.675,0,189.534-84.852,189.534-189.533C446.945,149.846,362.086,64.986,257.411,64.986z"/></g></g></g><g><g><g><path class="st35" d="M257.411,77.915C159.867,77.915,80.8,156.983,80.8,254.52c0,49.032,19.983,93.382,52.237,125.377       L257.411,254.52v176.612c97.544,0,176.612-79.076,176.612-176.612S354.955,77.915,257.411,77.915z"/></g></g></g><g><g><g><path class="st36" d="M257.411,82.215c-95.164,0-172.305,77.147-172.305,172.305c0,47.839,19.494,91.103,50.961,122.324       L257.411,254.52v172.305c95.165,0,172.305-77.14,172.305-172.305C429.716,159.362,352.576,82.215,257.411,82.215z"/></g></g></g><g><g><g><path class="st55" d="M257.389,90.982c-35.767-17.306-57.486,7.742-104.498,37.717c-39.6,25.247-46.951,72.833-59.115,125.896       c-4.599,20.083,11.055,39.798,10.764,58.474c-0.375,23.418,21.299,41.48,37.633,57.685l115.217-116.158V418.21       c34.267-11.056,83.926-9.073,106.388-39.309c37.327-50.241,69.13-76.008,57.226-124.306       c-18.789-76.283-26.723-102.922-67.799-132.637C326.273,102.466,291.655,107.562,257.389,90.982z"/></g></g></g><g><g><g><path class="st138" d="M152.891,128.699c-39.6,25.247-46.951,72.833-59.115,125.896c-4.599,20.083,11.055,39.798,10.764,58.474       c-0.375,23.418,21.299,41.48,37.633,57.685l115.217-116.158V418.21C317.001,285.39,199.902,98.725,152.891,128.699z"/></g></g></g><g><g><g><path class="st66" d="M368.803,308.311c6.021,12.982-1.186,29.109-16.089,36.019c-14.911,6.908-31.872,1.981-37.886-10.994       c-6.021-12.982,1.187-29.11,16.09-36.019C345.828,290.4,362.789,295.327,368.803,308.311z"/></g></g><g><g><path class="st236" d="M355.735,304.853c1.959,4.2-6.036,8.086-15.974,12.691c-9.938,4.606-17.451,9.502-19.402,5.295       c-1.95-4.208,2.41-15.929,12.341-20.534C342.638,297.699,353.793,300.637,355.735,304.853z"/></g></g><g><g><path class="st236" d="M361.994,318.34c1.95,4.208-3.412,13.748-13.351,18.361c-9.938,4.598-21.291,1.225-23.242-2.983       s6.243-7.65,16.181-12.256C351.521,316.849,360.043,314.14,361.994,318.34z"/></g></g></g><g><g><g><path class="st66" d="M324.254,123.742c0,14.313-13.319,25.912-29.745,25.912c-16.434,0-29.753-11.599-29.753-25.912       c0-14.307,13.319-25.905,29.753-25.905C310.935,97.837,324.254,109.436,324.254,123.742z"/></g></g><g><g><path class="st236" d="M313.856,115.104c0,4.644-8.874,4.805-19.83,4.805c-10.955,0-19.83,1.277-19.83-3.358       c0-4.637,8.875-13.435,19.83-13.435C304.982,103.116,313.856,110.476,313.856,115.104z"/></g></g><g><g><path class="st236" d="M313.856,129.984c0,4.645-8.874,11.04-19.83,11.04c-10.955,0-19.83-7.842-19.83-12.478       c0-4.637,8.875-4.323,19.83-4.323C304.982,124.224,313.856,125.349,313.856,129.984z"/></g></g></g><g><g><g><path class="st66" d="M227.284,249.172c-12.509-6.441-17.443-21.758-11.024-34.205c6.419-12.455,21.75-17.321,34.251-10.879       c12.509,6.449,17.443,21.766,11.024,34.205C255.116,250.748,239.785,255.621,227.284,249.172z"/></g></g><g><g><path class="st236" d="M238.882,245.186c-4.047-2.088-0.719-8.89,3.558-17.19c4.276-8.293,6.625-15.606,10.68-13.519       c4.048,2.089,8.271,12.784,3.994,21.085S242.937,247.274,238.882,245.186z"/></g></g><g><g><path class="st236" d="M225.892,238.484c-4.062-2.089-6.182-11.698-1.905-19.991c4.284-8.301,14.598-11.506,18.652-9.418       c4.047,2.097,0.306,8.676-3.971,16.969C234.384,234.353,229.938,240.565,225.892,238.484z"/></g></g></g><g><g><g><path class="st229" d="M212.901,180.93c0,17.849-15.791,38.054-35.721,38.054c-19.922,0-36.072-14.46-36.072-32.309       c0-17.841,16.15-32.308,36.072-32.308C197.11,154.367,212.901,163.089,212.901,180.93z"/></g></g><g><g><path class="st60" d="M209.52,180.93c0,16.181-12.302,33.027-30.365,33.027c-18.055,0-34.664-11.109-34.664-27.282       s14.636-29.278,32.69-29.278C195.243,157.396,209.52,164.756,209.52,180.93z"/></g></g><g><g><path class="st151" d="M179.154,213.957c-18.055,0-34.664-11.109-34.664-27.282s14.636-29.278,32.69-29.278       C195.243,157.396,197.218,213.957,179.154,213.957z"/></g></g></g><g><g><g><path class="st229" d="M372.284,211.447c0,17.849-15.799,38.054-35.721,38.054s-36.072-14.467-36.072-32.309       c0-17.849,16.15-32.315,36.072-32.315S372.284,193.599,372.284,211.447z"/></g></g><g><g><path class="st60" d="M368.902,211.447c0,16.173-12.31,33.02-30.365,33.02c-18.055,0-34.664-11.101-34.664-27.274       c0-16.173,14.636-29.286,32.69-29.286C354.619,187.906,368.902,195.267,368.902,211.447z"/></g></g><g><g><path class="st151" d="M338.537,244.467c-18.055,0-34.664-11.101-34.664-27.274c0-16.173,14.636-29.286,32.69-29.286       C354.619,187.906,356.593,244.467,338.537,244.467z"/></g></g></g><g><g><g><path class="st66" d="M162.102,330.573c-13.014,5.968-29.103-1.301-35.957-16.234c-6.848-14.934-1.852-31.872,11.154-37.84       c13.006-5.967,29.103,1.309,35.957,16.242C180.104,307.675,175.107,324.613,162.102,330.573z"/></g></g><g><g><path class="st236" d="M165.613,317.529c-4.216,1.928-8.056-6.074-12.623-16.028c-4.567-9.961-9.434-17.496-5.218-19.424       c4.215-1.937,15.913,2.471,20.48,12.424C172.82,304.462,169.828,315.594,165.613,317.529z"/></g></g><g><g><path class="st236" d="M152.095,323.726c-4.216,1.936-13.732-3.465-18.3-13.426c-4.567-9.954-1.14-21.292,3.075-23.228       c4.216-1.936,7.628,6.273,12.195,16.234C153.633,313.26,156.311,321.798,152.095,323.726z"/></g></g></g><g><g><g><path class="st62" d="M246.28,472.054c-52.062,0-99.22-20.993-133.479-54.969L246.28,282.521V472.054z"/></g></g><g><g><path class="st53" d="M112.802,417.085c34.259,33.976,81.417,54.969,133.479,54.969v-14.505       c-47.418-1.768-90.391-20.939-122.691-51.351L112.802,417.085z"/></g></g><g><g><path class="st138" d="M132.486,394.516c0,0,50.026,37.962,68.801,39.079c18.79,1.133,28.682,9.257,46.071,12.616       l-1.078-163.69L132.486,394.516z"/></g></g></g><g><g><g><path class="st229" d="M257.595,308.364c-0.061,0-0.122,0.007-0.184,0.007v3.038c0.062,0,0.123-0.016,0.184-0.016       c18.056,0,32.331,7.359,32.331,23.533c0,16.173-12.302,33.026-30.356,33.026c-0.728,0-1.438-0.046-2.158-0.084v5.104       c0.062,0,0.123,0.007,0.184,0.007c19.922,0,35.713-20.212,35.713-38.053C293.308,317.085,277.517,308.364,257.595,308.364z"/></g></g><g><g><path class="st60" d="M259.569,367.953c18.055,0,30.356-16.854,30.356-33.026c0-16.174-14.275-23.533-32.331-23.533       c-0.061,0-0.122,0.016-0.184,0.016v56.46C258.131,367.907,258.842,367.953,259.569,367.953z"/></g></g></g><g><g><g><path class="st229" d="M214.492,367.77c0-16.119,14.544-29.187,32.507-29.271v-3.021       c-19.838,0.084-35.896,14.505-35.896,32.292c0,17.796,16.058,32.217,35.896,32.301v-5.095       C229.809,394.126,214.492,383.301,214.492,367.77z"/></g></g><g><g><path class="st151" d="M214.492,367.77c0,15.531,15.316,26.356,32.507,27.206v-56.477       C229.036,338.583,214.492,351.65,214.492,367.77z"/></g></g></g><g><g><g><path class="st233" d="M307.04,268.459c0,5.355-2.517,10.771-9.693,10.053c-5.921-0.597-11.215-6.12-9.333-11.124       c2.157-5.745,3.382-8.255,9.333-8.255C303.292,259.133,307.04,263.111,307.04,268.459z"/></g></g><g><g><path class="st91" d="M300.102,272.269c-1.943,1.454-4.591,2.005-6.273-0.796c-1.385-2.31-0.812-5.729,1.515-6.403       c2.67-0.772,3.917-1.01,5.523,1.155C302.48,268.382,302.045,270.823,300.102,272.269z"/></g></g></g><g><g><g><path class="st233" d="M296.269,180.868c0,5.355-2.518,10.771-9.693,10.053c-5.922-0.589-11.216-6.12-9.334-11.132       c2.158-5.737,3.39-8.247,9.334-8.247C292.527,171.542,296.269,175.521,296.269,180.868z"/></g></g><g><g><path class="st91" d="M289.329,184.678c-1.943,1.454-4.59,2.005-6.273-0.795c-1.385-2.311-0.811-5.73,1.522-6.403       c2.67-0.773,3.91-1.011,5.524,1.154C291.709,180.8,291.28,183.232,289.329,184.678z"/></g></g></g><g><g><g><path class="st132" d="M198.984,262.721c0,5.348-2.509,10.765-9.693,10.045c-5.913-0.589-11.208-6.12-9.325-11.131       c2.149-5.738,3.381-8.247,9.325-8.247C195.243,253.388,198.984,257.357,198.984,262.721z"/></g></g><g><g><path class="st49" d="M192.054,266.523c-1.943,1.453-4.599,2.004-6.273-0.804c-1.393-2.303-0.812-5.723,1.515-6.396       c2.67-0.772,3.917-1.01,5.523,1.147C194.425,262.645,193.996,265.077,192.054,266.523z"/></g></g></g><g><g><g><path class="st132" d="M230.359,125.983c-4.697,2.578-10.657,2.977-13.48-3.657c-2.325-5.47-0.03-12.776,5.271-13.533       c6.066-0.88,8.867-1.01,11.729,4.208C236.74,118.218,235.049,123.413,230.359,125.983z"/></g></g><g><g><path class="st49" d="M223.681,121.737c-2.211-1.01-3.963-3.06-2.318-5.883c1.362-2.326,4.637-3.466,6.343-1.744       c1.958,1.958,2.769,2.938,1.645,5.394C228.225,121.952,225.884,122.747,223.681,121.737z"/></g></g></g><g><g><g><path class="st132" d="M397.638,266.707c-4.697,2.57-10.649,2.968-13.48-3.665c-2.325-5.478-0.03-12.776,5.271-13.541       c6.066-0.872,8.859-1.002,11.729,4.215C404.019,258.934,402.327,264.129,397.638,266.707z"/></g></g><g><g><path class="st49" d="M390.959,262.453c-2.211-1.01-3.963-3.061-2.318-5.883c1.354-2.326,4.636-3.466,6.342-1.752       c1.959,1.966,2.763,2.945,1.646,5.394C395.503,262.667,393.162,263.463,390.959,262.453z"/></g></g></g><g><g><g><path class="st233" d="M175.896,385.305c0,5.355-2.518,10.772-9.693,10.053c-5.922-0.589-11.216-6.112-9.334-11.124       c2.15-5.737,3.382-8.255,9.334-8.255C172.146,375.979,175.896,379.957,175.896,385.305z"/></g></g><g><g><path class="st91" d="M168.949,389.122c-1.943,1.446-4.591,1.997-6.273-0.803c-1.378-2.311-0.812-5.738,1.522-6.403       c2.67-0.773,3.917-1.003,5.523,1.155C171.328,385.229,170.899,387.677,168.949,389.122z"/></g></g></g><g><g><g><path class="st132" d="M333.963,375.428c0,5.355-2.518,10.772-9.693,10.053c-5.922-0.589-11.216-6.12-9.334-11.131       c2.149-5.738,3.382-8.255,9.334-8.255C330.214,366.095,333.963,370.08,333.963,375.428z"/></g></g><g><g><path class="st49" d="M327.023,379.238c-1.943,1.453-4.598,2.004-6.281-0.796c-1.385-2.311-0.803-5.738,1.522-6.403       c2.67-0.772,3.917-1.01,5.523,1.155C329.396,375.359,328.967,377.792,327.023,379.238z"/></g></g></g><g><g><g><path class="st233" d="M131.568,221.516c0,5.355-2.51,10.771-9.693,10.053c-5.914-0.59-11.208-6.113-9.333-11.124       c2.157-5.753,3.389-8.263,9.333-8.263C127.827,212.182,131.568,216.168,131.568,221.516z"/></g></g><g><g><path class="st91" d="M124.63,225.325c-1.943,1.454-4.591,2.005-6.273-0.804c-1.385-2.303-0.812-5.722,1.522-6.396       c2.67-0.772,3.909-1.01,5.523,1.155C127.009,221.446,126.58,223.879,124.63,225.325z"/></g></g></g></g></g></svg>